<?xml version="1.0" encoding="UTF-8" standalone="no"?>
<!DOCTYPE svg PUBLIC "-//W3C//DTD SVG 1.1//EN" "http://www.w3.org/Graphics/SVG/1.1/DTD/svg11.dtd">
<svg width="100%" height="100%" viewBox="0 0 645 645" version="1.1" xmlns="http://www.w3.org/2000/svg" xmlns:xlink="http://www.w3.org/1999/xlink" xml:space="preserve" xmlns:serif="http://www.serif.com/" style="fill-rule:evenodd;clip-rule:evenodd;stroke-linejoin:round;stroke-miterlimit:2;">
    <g transform="matrix(0.992344,0.123505,-0.123505,0.992344,-183.176815,-282.917615)">
        <path d="M430.658,440.377C409.211,476.299 398.303,519.35 401.746,564.439C389.636,567.524 381.474,579.916 383.163,593.486C384.984,608.117 397.573,618.613 411.257,616.91C411.619,616.865 411.977,616.812 412.332,616.751C441.797,704.362 525.32,763.282 616.804,756.197C613.645,756.731 610.459,757.199 607.249,757.598C488.002,772.439 379.167,687.889 364.358,568.905C349.55,449.921 434.34,341.272 553.587,326.431C672.833,311.59 782.259,401.396 797.068,520.38C782.954,425.667 708.504,354.663 619.911,344.76C619.443,354.692 612.732,362.559 604.594,362.5C596.253,362.439 589.532,354.074 589.523,343.792C584.623,344.024 579.698,344.445 574.753,345.061C549.424,348.213 525.82,356.19 504.683,368.001L507.499,389.498C513.296,404.627 510.628,421.473 499.255,432.26C489.276,441.725 474.992,444.251 461.641,440.277L461.737,440.377L430.658,440.377ZM440.128,426.619L439.852,426.313C439.318,427.061 438.789,427.813 438.265,428.569L440.128,426.619ZM460.286,396.072C452.494,404.5 451.355,416.139 457.744,422.047C464.133,427.954 475.647,425.909 483.44,417.481C491.232,409.053 492.372,397.415 485.982,391.507C479.593,385.599 468.079,387.645 460.286,396.072Z" style="fill:url(#_Linear1);"/>
    </g>
    <g transform="matrix(-1.224559,0.885819,-0.598304,-0.827098,1019.769592,427.643056)">
        <path d="M436.885,540C432.505,542.929 428.949,549.796 428.949,557.575C428.949,565.354 432.505,572.22 436.885,575.149C428.125,575.149 421.013,567.274 421.013,557.575C421.013,547.875 428.125,540 436.885,540Z" style="fill:rgb(235,235,235);"/>
    </g>
    <g transform="matrix(-1.547126,-0.980616,0.973629,-1.536103,352.669296,1549.856757)">
        <path d="M436.885,540C432.505,542.929 428.949,549.796 428.949,557.575C428.949,565.354 432.505,572.22 436.885,575.149C428.125,575.149 421.013,567.274 421.013,557.575C421.013,547.875 428.125,540 436.885,540Z" style="fill:rgb(235,235,235);"/>
    </g>
    <g transform="matrix(-0.261295,-1.74412,1.178693,-0.176586,-227.485367,1015.175978)">
        <path d="M436.885,540C431.635,542.348 427.374,549.414 427.374,557.575C427.374,565.735 431.635,572.802 436.885,575.149C428.125,575.149 421.013,567.274 421.013,557.575C421.013,547.875 428.125,540 436.885,540Z" style="fill:rgb(235,235,235);"/>
    </g>
    <g transform="matrix(1,0,0,1.259259,-249.485922,-386.944443)">
        <path d="M793.005,570.863C793.047,569.467 793.005,572.267 793.005,570.863Z" style="fill:rgb(235,235,235);fill-opacity:0.36;"/>
    </g>
    <defs>
        <linearGradient id="_Linear1" x1="0" y1="0" x2="1" y2="0" gradientUnits="userSpaceOnUse" gradientTransform="matrix(542.924986,501.680789,-501.680789,542.924986,529.358963,349.21296)"><stop offset="0" style="stop-color:rgb(235,235,235);stop-opacity:1"/><stop offset="1" style="stop-color:rgb(163,163,163);stop-opacity:1"/></linearGradient>
    </defs>
</svg>
